<svg version="1.1" id="Layer_1" xmlns="http://www.w3.org/2000/svg" xmlns:xlink="http://www.w3.org/1999/xlink" x="0px" y="0px"
	 width="100%" viewBox="0 0 265 266" enable-background="new 0 0 265 266" xml:space="preserve">
<path fill="#000000" opacity="1.000000" stroke="none" 
	d="
M266.000000,199.000000 
	C266.000000,221.638504 266.000000,244.276993 266.000000,266.957214 
	C177.666672,266.957214 89.333336,266.957214 1.000000,266.957214 
	C1.000000,260.588989 1.000000,254.263535 1.341750,247.305283 
	C4.780954,250.063492 5.469397,255.670624 11.376179,256.903320 
	C15.252840,258.339478 18.741274,260.769806 22.281199,260.847290 
	C40.046989,261.236115 57.826260,261.016754 75.600761,260.987915 
	C77.330910,260.985107 79.060806,260.824432 80.790817,260.737000 
	C79.773224,259.075714 78.555275,258.527344 77.347649,257.957062 
	C72.363411,255.603378 67.079269,253.718628 62.467144,250.779861 
	C54.436771,245.663040 48.766644,238.194489 44.052845,229.608658 
	C43.116543,228.096176 42.042744,227.035645 41.389488,225.759781 
	C35.316521,213.898773 11.487602,213.295776 5.083631,225.782623 
	C4.093988,227.712311 2.379357,229.270187 0.999998,231.000000 
	C1.000000,182.645767 1.000000,134.291550 1.321942,85.300095 
	C2.116508,84.768784 2.589132,84.874702 3.085382,85.317947 
	C3.167459,86.101738 3.225909,86.548203 3.244007,87.332314 
	C3.872786,89.250343 4.541918,90.830719 5.236830,92.800156 
	C8.486931,98.142380 11.711253,103.095543 15.052334,108.364395 
	C23.101538,114.759148 31.033981,120.838203 39.284725,127.070023 
	C44.726727,129.824890 49.850426,132.427017 54.982944,135.015610 
	C54.991768,135.002075 54.971199,135.025421 55.126255,135.288361 
	C55.858467,135.734070 56.435627,135.916870 56.998291,136.064819 
	C56.983803,136.029968 56.914146,136.059006 57.074471,136.323395 
	C57.822491,136.751602 58.410187,136.915421 58.995941,137.048447 
	C58.993999,137.017670 58.938042,137.043594 59.098965,137.300507 
	C59.837456,137.708405 60.415028,137.859406 60.996300,138.005188 
	C61.000000,138.000000 60.993160,138.010223 61.138123,138.272629 
	C61.848160,138.695480 62.413239,138.855927 62.985680,139.012878 
	C62.993034,139.009354 62.992359,139.025177 63.143040,139.278595 
	C63.843880,139.716965 64.394043,139.901932 65.112213,140.343582 
	C66.202751,140.994904 67.125267,141.389542 68.359459,141.954529 
	C78.112640,146.688354 87.554138,151.251831 97.367859,155.891663 
	C105.816589,160.325089 113.893089,164.682144 121.980774,169.020477 
	C121.991966,169.001770 121.953354,169.021149 122.036423,169.248688 
	C122.311737,169.794861 122.590263,169.917465 123.267509,169.993530 
	C128.033813,174.105530 132.487671,178.068069 137.090240,182.333618 
	C140.140884,186.116837 143.042816,189.597061 145.986145,193.440491 
	C149.130295,201.243027 154.134766,208.110138 152.623657,217.022522 
	C148.913254,223.999710 145.537338,230.791443 141.833023,238.243851 
	C145.699432,235.392685 149.360336,232.693054 153.322937,229.856430 
	C155.427628,227.528595 157.230606,225.337769 159.296631,223.050659 
	C159.745071,222.642303 159.930466,222.330215 160.328766,221.928604 
	C160.809052,221.650406 160.967896,221.394409 161.300232,220.931030 
	C161.739120,220.194122 161.896042,219.597275 162.277374,218.915176 
	C162.782944,218.637451 162.950027,218.372940 163.305222,217.884796 
	C164.100418,216.496933 164.593399,215.260620 165.055054,214.022522 
	C165.023743,214.020721 165.040878,214.081100 165.330322,213.907104 
	C166.107712,212.497528 166.595642,211.261963 167.052551,210.025452 
	C167.021515,210.024506 167.043564,210.082550 167.342072,209.889160 
	C168.144958,208.133850 168.649368,206.571899 169.106171,205.017853 
	C169.058563,205.025757 169.074448,205.120941 169.383240,204.901657 
	C170.743423,199.794830 171.794815,194.907288 172.907318,189.553894 
	C172.686600,183.045120 172.404724,177.002197 172.224274,170.605896 
	C170.490616,164.823074 168.655548,159.393661 166.835480,153.716827 
	C166.680344,153.146927 166.413284,152.974747 165.991669,152.712738 
	C165.934052,152.472580 165.832001,151.989304 165.797424,151.652588 
	C163.517715,148.506531 161.272583,145.697189 158.912964,142.626343 
	C158.206970,141.899094 157.615479,141.433304 156.893402,140.689240 
	C155.848862,139.603668 154.934921,138.796402 153.875732,137.685959 
	C147.841385,132.910370 141.952271,128.437943 135.913055,123.646744 
	C134.403488,122.520081 133.007462,121.767349 131.691086,120.894493 
	C126.715790,117.595482 121.766342,114.257477 116.879639,110.475662 
	C116.911598,97.351616 116.871140,84.685959 116.901596,71.555077 
	C116.983749,60.424904 116.900230,49.758781 117.032829,39.095352 
	C117.165802,28.400558 117.514343,17.708447 117.888054,6.720895 
	C122.677383,5.895526 127.347069,5.364423 132.465790,4.885574 
	C137.599518,5.589668 142.316452,6.959253 146.962509,6.750549 
	C158.164169,6.247362 167.750229,10.295862 177.287781,16.028519 
	C184.761185,21.421068 189.464905,28.677259 193.947815,36.514366 
	C195.030914,41.295242 196.107925,45.681274 197.124207,50.510120 
	C197.438812,60.059147 194.249435,68.153473 189.666702,76.081116 
	C183.500534,82.692299 176.583679,87.483307 168.221725,90.287422 
	C162.525970,92.197426 156.987640,94.594826 151.445175,96.931450 
	C150.048279,97.520348 148.905502,98.711967 147.558716,99.689941 
	C157.677322,103.529251 167.023758,107.075569 176.376160,110.654831 
	C176.382111,110.687767 176.447144,110.671867 176.634262,110.910484 
	C177.522675,111.462067 178.223984,111.775040 178.958557,112.079010 
	C178.991852,112.070015 178.925720,112.064011 179.096680,112.319992 
	C179.851425,112.752106 180.435242,112.928230 180.999268,113.070114 
	C180.979492,113.035866 180.911041,113.075485 181.055878,113.362930 
	C182.113983,114.132706 183.027222,114.615036 184.041016,115.320190 
	C184.344818,115.828018 184.620895,115.984802 185.108582,116.312927 
	C186.472687,117.437355 187.697998,118.262238 189.032837,119.305283 
	C189.345047,119.803101 189.617096,119.968903 190.049210,120.252151 
	C190.351334,120.805466 190.642502,120.914413 191.315796,120.981918 
	C195.399094,125.790039 199.180008,130.426514 202.995117,135.425629 
	C204.962601,139.553528 206.895905,143.318741 208.905365,147.459732 
	C216.829010,168.034180 215.825150,187.947693 206.277710,207.236938 
	C195.325043,229.365173 175.698273,241.535706 153.981186,250.799545 
	C147.306427,253.646805 140.023972,255.069382 132.656128,257.240570 
	C129.860672,257.938080 127.428856,258.539368 124.609154,259.062683 
	C122.803001,259.315491 121.384735,259.646210 119.610313,259.994995 
	C118.541893,260.009338 117.829628,260.005554 117.069122,259.535217 
	C116.958923,242.049683 116.896957,225.030716 116.905472,207.547028 
	C116.975533,197.701126 117.013840,188.319641 116.931168,178.939209 
	C116.919342,177.597778 116.322395,176.261475 115.978455,174.577362 
	C114.998039,173.461899 114.035400,172.691895 112.900742,171.612396 
	C103.148071,166.876968 93.567429,162.451004 83.792084,157.694168 
	C83.071960,158.968002 82.094048,160.571106 82.088287,162.177673 
	C81.983368,191.449295 82.017288,220.721375 81.953552,249.993225 
	C81.945854,253.527924 81.544472,257.061768 81.519104,260.745880 
	C94.476845,260.856354 107.241028,260.816925 120.417397,260.843292 
	C122.218102,260.872498 123.606621,260.835938 125.368858,260.876282 
	C127.478210,260.907227 129.213852,260.861206 131.303757,260.872864 
	C132.254486,260.667480 132.850952,260.404449 133.777679,260.459473 
	C144.392029,260.798492 154.676117,260.819489 165.427795,260.902100 
	C177.443817,260.298584 189.114227,260.459259 200.512146,258.775421 
	C217.750504,256.228729 233.017654,248.806046 245.287537,236.114182 
	C254.761749,226.314133 260.800507,214.563217 264.011505,201.320282 
	C264.225403,200.438004 265.316772,199.768478 266.000000,199.000000 
z"/>
<path fill="#408891" opacity="1.000000" stroke="none" 
	d="
M133.019775,257.144318 
	C140.023972,255.069382 147.306427,253.646805 153.981186,250.799545 
	C175.698273,241.535706 195.325043,229.365173 206.277710,207.236938 
	C215.825150,187.947693 216.829010,168.034180 209.284744,147.318176 
	C217.305115,145.564743 224.436554,143.392685 230.528351,137.871490 
	C235.177643,133.657669 240.839600,130.561127 246.353699,127.120026 
	C255.129410,136.639313 260.688354,147.560028 264.070709,159.673798 
	C264.318085,160.559708 265.338806,161.229660 266.000000,162.000000 
	C266.000000,174.020889 266.000000,186.041794 266.000000,198.531342 
	C265.316772,199.768478 264.225403,200.438004 264.011505,201.320282 
	C260.800507,214.563217 254.761749,226.314133 245.287537,236.114182 
	C233.017654,248.806046 217.750504,256.228729 200.512146,258.775421 
	C189.114227,260.459259 177.443817,260.298584 165.047363,260.756348 
	C153.948685,260.413147 143.698059,260.277283 133.447418,260.141418 
	C132.850952,260.404449 132.254486,260.667480 131.472046,260.638184 
	C131.863968,259.278687 132.441864,258.211517 133.019775,257.144318 
z"/>
<path fill="#000000" opacity="1.000000" stroke="none" 
	d="
M266.000000,161.531342 
	C265.338806,161.229660 264.318085,160.559708 264.070709,159.673798 
	C260.688354,147.560028 255.129410,136.639313 246.213043,126.812546 
	C240.203659,121.558113 234.637573,116.763596 228.914398,111.659760 
	C224.864380,109.204109 220.971436,107.057777 217.005646,104.675049 
	C216.725174,104.102791 216.436493,104.004219 215.825500,104.089905 
	C215.584274,104.036865 215.112015,103.892067 215.035172,103.634033 
	C214.640930,103.274788 214.323532,103.173569 213.689941,103.048775 
	C212.953613,102.985535 212.533508,102.945877 212.034332,102.660599 
	C211.653458,102.309441 211.351624,102.203918 210.729553,102.067879 
	C209.982529,101.998817 209.555710,101.960281 209.041382,101.675201 
	C208.647507,101.320892 208.341171,101.213127 207.712524,101.075531 
	C206.961868,101.002716 206.533524,100.959747 205.987122,100.622070 
	C205.268250,100.270348 204.667435,100.213348 203.689636,100.113159 
	C202.559418,100.003090 201.806152,99.936211 200.918365,99.589920 
	C200.189026,99.266777 199.594208,99.223030 198.766510,99.118118 
	C198.533615,99.056953 198.058960,98.975601 198.034363,98.650780 
	C198.025269,97.892082 198.040787,97.458214 198.292267,96.999374 
	C198.528214,96.974403 199.001724,96.943008 199.360962,97.020370 
	C208.505539,91.308632 215.871567,84.687035 221.146057,74.937935 
	C225.117065,67.598129 225.427109,60.546799 225.895935,52.549347 
	C226.072632,46.179398 226.608337,40.194927 223.015274,34.550724 
	C220.948563,30.782267 218.896347,27.375048 216.856689,23.713526 
	C216.594666,23.281473 216.320068,23.103725 216.025604,22.948168 
	C216.005737,22.970358 216.064835,22.977879 215.975311,22.741455 
	C215.611832,22.325037 215.337891,22.145042 214.944153,21.746304 
	C214.614166,21.250603 214.340057,21.071447 213.850540,20.692455 
	C205.754318,11.627083 195.949127,6.041088 184.167969,3.171487 
	C182.573151,2.357165 181.286575,1.678580 180.000000,0.999997 
	C208.615799,1.000000 237.231613,1.000000 266.000000,1.000000 
	C266.000000,54.354134 266.000000,107.708412 266.000000,161.531342 
z"/>
<path fill="#000000" opacity="1.000000" stroke="none" 
	d="
M1.000000,62.000000 
	C1.000000,41.739254 1.000000,21.478512 1.000000,1.000000 
	C21.353710,1.000000 41.708195,1.000000 62.543488,1.390759 
	C63.920330,3.322088 64.474579,5.766902 65.768120,6.255833 
	C73.896370,9.328150 78.826012,15.247284 81.988052,23.366673 
	C82.095192,24.152327 82.153015,24.601667 82.149979,25.376934 
	C82.129364,26.139904 82.169601,26.576952 82.159592,27.479485 
	C82.034096,51.600960 81.958839,75.256950 81.492401,98.932541 
	C74.059761,95.994209 67.018311,93.036285 59.664665,89.912872 
	C55.932835,87.794815 52.513191,85.842255 48.914478,83.598587 
	C42.418488,77.875145 36.101566,72.442802 29.723040,66.686623 
	C28.387440,64.562157 27.113449,62.761524 25.823112,60.719193 
	C25.637249,60.171677 25.379519,59.993340 24.981155,59.699871 
	C24.928740,59.457249 24.859434,58.965672 24.851822,58.710579 
	C24.580734,58.253880 24.317259,58.052277 24.028755,57.537888 
	C23.998446,56.806755 23.993162,56.388409 23.974319,55.694839 
	C23.652641,55.253826 23.344521,55.088036 23.075687,54.915695 
	C23.114975,54.909142 23.101944,54.830551 23.082258,54.414146 
	C22.819021,46.776402 22.624514,39.552765 22.287613,32.335777 
	C22.225502,31.005215 21.587059,29.701557 21.016447,27.685165 
	C10.423017,37.609077 4.688978,48.920250 1.829519,62.109661 
	C1.373376,62.173767 1.186688,62.086884 1.000000,62.000000 
z"/>
<path fill="#388089" opacity="1.000000" stroke="none" 
	d="
M0.999998,231.466858 
	C2.379357,229.270187 4.093988,227.712311 5.083631,225.782623 
	C11.487602,213.295776 35.316521,213.898773 41.389488,225.759781 
	C42.042744,227.035645 43.116543,228.096176 43.692642,229.717865 
	C42.582096,231.839539 41.897629,233.576141 40.932465,235.139481 
	C39.910625,236.794586 38.942173,238.842606 37.386017,239.736481 
	C33.597805,241.912476 29.183304,243.068085 25.571308,245.464157 
	C20.458586,248.855728 15.840939,252.993622 11.011692,256.812531 
	C5.469397,255.670624 4.780954,250.063492 1.341750,246.836243 
	C1.000000,241.977905 1.000000,236.955811 0.999998,231.466858 
z"/>
<path fill="#1A606B" opacity="1.000000" stroke="none" 
	d="
M82.210846,25.051010 
	C82.153015,24.601667 82.095192,24.152327 82.167328,23.067513 
	C84.633858,15.626282 90.375992,12.356565 96.135590,9.105504 
	C99.423332,7.249707 103.077339,5.705165 103.000000,1.000000 
	C112.687561,1.000000 122.375122,1.000000 132.457581,1.321630 
	C132.573898,2.706613 132.295319,3.769966 132.016754,4.833319 
	C127.347069,5.364423 122.677383,5.895526 117.618347,6.970777 
	C116.814995,12.009361 116.400986,16.503799 115.654228,20.852127 
	C111.353653,18.381334 108.074783,18.352188 105.244522,22.757505 
	C104.099846,24.539190 101.736557,25.569983 99.856850,26.837200 
	C98.374992,27.836199 96.110023,28.301220 95.364265,29.650734 
	C92.779716,34.327637 88.588249,34.909542 84.015144,34.620293 
	C83.686676,32.495998 83.365448,30.763763 82.999611,28.745087 
	C82.948273,28.072662 82.941544,27.686682 82.879356,27.006304 
	C82.619545,26.158276 82.415199,25.604643 82.210846,25.051010 
z"/>
<path fill="#1A5F6A" opacity="1.000000" stroke="none" 
	d="
M25.839458,60.960892 
	C27.113449,62.761524 28.387440,64.562157 29.431622,66.771561 
	C28.716011,67.952187 27.872965,68.691635 27.799566,69.500885 
	C27.050257,77.762535 24.094856,80.676849 15.891567,81.907829 
	C11.558826,82.557983 7.334843,83.932915 3.061756,84.980621 
	C2.589132,84.874702 2.116508,84.768784 1.321942,84.831436 
	C1.000000,80.643097 1.000000,76.286201 1.306495,71.343346 
	C5.149640,68.165573 3.554293,66.039291 1.000000,64.000000 
	C1.000000,63.555553 1.000000,63.111111 1.000000,62.333332 
	C1.186688,62.086884 1.373376,62.173767 2.174753,62.191605 
	C4.919156,62.280647 8.624025,63.159973 8.933310,62.484509 
	C11.815664,56.189594 17.996895,56.587570 23.101944,54.830551 
	C23.101944,54.830551 23.114975,54.909142 23.236769,55.088562 
	C23.570938,55.499680 23.780710,55.733707 23.987879,55.970062 
	C23.993162,56.388409 23.998446,56.806755 24.153816,57.730103 
	C24.482046,58.483978 24.667223,58.727501 24.859434,58.965672 
	C24.859434,58.965672 24.928740,59.457249 25.105307,59.877174 
	C25.458620,60.526020 25.644482,60.747284 25.839458,60.960892 
z"/>
<path fill="#185B66" opacity="1.000000" stroke="none" 
	d="
M102.531342,1.000000 
	C103.077339,5.705165 99.423332,7.249707 96.135590,9.105504 
	C90.375992,12.356565 84.633858,15.626282 82.118019,22.731203 
	C78.826012,15.247284 73.896370,9.328150 65.768120,6.255833 
	C64.474579,5.766902 63.920330,3.322088 63.012146,1.390759 
	C76.020897,1.000000 89.041786,1.000000 102.531342,1.000000 
z"/>
<path fill="#216470" opacity="1.000000" stroke="none" 
	d="
M132.465790,4.885574 
	C132.295319,3.769966 132.573898,2.706613 132.926239,1.321630 
	C148.354233,1.000000 163.708450,1.000000 179.531342,0.999997 
	C181.286575,1.678580 182.573151,2.357165 183.735916,3.371491 
	C181.402008,7.762028 179.191910,11.816824 176.981827,15.871620 
	C167.750229,10.295862 158.164169,6.247362 146.962509,6.750549 
	C142.316452,6.959253 137.599518,5.589668 132.465790,4.885574 
z"/>
<path fill="#185964" opacity="1.000000" stroke="none" 
	d="
M1.000000,64.333328 
	C3.554293,66.039291 5.149640,68.165573 1.306495,70.878693 
	C1.000000,70.250000 1.000000,69.500000 1.096776,68.183960 
	C1.129034,67.078613 1.064517,66.539307 1.000000,66.000000 
	C1.000000,65.555557 1.000000,65.111107 1.000000,64.333328 
z"/>
<path fill="#1A5F6A" opacity="1.000000" stroke="none" 
	d="
M1.000000,66.333328 
	C1.064517,66.539307 1.129034,67.078613 1.096776,67.808960 
	C1.000000,67.555557 1.000000,67.111107 1.000000,66.333328 
z"/>
<path fill="#286D77" opacity="1.000000" stroke="none" 
	d="
M59.976860,90.078362 
	C67.018311,93.036285 74.059761,95.994209 81.649689,98.983353 
	C82.198158,99.014580 82.677765,99.033524 82.677765,99.033524 
	C82.677765,99.033524 83.121864,98.826874 83.274063,98.466568 
	C83.624886,92.407532 83.823517,86.708786 84.370300,81.093872 
	C87.203949,81.192406 90.316780,82.176361 92.061745,81.046951 
	C98.228249,77.055740 103.865112,72.255859 109.839409,67.952240 
	C111.652382,66.646263 113.907135,65.953560 115.965286,65.422241 
	C115.992104,67.929642 116.013168,69.994766 116.033348,72.522369 
	C116.002426,79.654678 115.972389,86.324509 115.548355,92.945747 
	C112.103806,93.053665 108.619232,92.323463 106.096497,93.558289 
	C101.396660,95.858757 97.296982,99.364525 92.875130,102.258018 
	C83.511017,108.385513 74.429459,115.058594 64.591820,120.308205 
	C58.153481,123.743881 53.908428,127.301636 54.974121,135.029144 
	C49.850426,132.427017 44.726727,129.824890 39.330322,126.804825 
	C35.448341,118.814445 35.881630,117.938934 44.491631,114.576302 
	C45.502190,114.181625 46.287178,113.199326 47.163864,112.473877 
	C49.533195,110.513290 51.679127,108.172119 54.300732,106.647446 
	C62.634518,101.800674 63.486282,99.851372 60.164391,91.056496 
	C60.048813,90.750496 60.037025,90.405289 59.976860,90.078362 
z"/>
<path fill="#2F7680" opacity="1.000000" stroke="none" 
	d="
M96.995644,155.815292 
	C87.554138,151.251831 78.112640,146.688354 68.547813,141.683563 
	C71.035835,138.339478 73.323967,135.034134 76.328835,132.621445 
	C81.820595,128.211945 87.481689,123.896431 93.541222,120.341164 
	C100.746788,116.113495 108.446609,112.728226 116.019501,109.233055 
	C116.340233,109.970139 116.573730,110.452095 116.807220,110.934059 
	C121.766342,114.257477 126.715790,117.595482 131.691086,120.894493 
	C133.007462,121.767349 134.403488,122.520081 135.557114,123.708954 
	C134.060913,125.037102 132.838486,126.100594 131.463776,126.903320 
	C129.551437,128.019974 127.544060,129.761307 125.544205,129.807739 
	C115.563858,130.039551 110.974098,137.638504 106.281204,144.296890 
	C104.071320,147.432327 102.479912,149.169739 98.731949,149.066879 
	C96.827484,149.014633 94.903885,149.659546 92.798134,150.022141 
	C94.579544,152.480743 95.787598,154.148010 96.995644,155.815292 
z"/>
<path fill="#337982" opacity="1.000000" stroke="none" 
	d="
M225.832794,53.006798 
	C225.427109,60.546799 225.117065,67.598129 221.146057,74.937935 
	C215.871567,84.687035 208.505539,91.308632 199.343918,96.674622 
	C198.570282,92.525459 197.211197,91.976067 194.264420,94.495689 
	C190.500610,97.713898 186.871704,101.630165 182.447037,103.374138 
	C178.496323,104.931297 176.812790,106.859406 176.370193,110.621895 
	C167.023758,107.075569 157.677322,103.529251 147.558716,99.689941 
	C148.905502,98.711967 150.048279,97.520348 151.445175,96.931450 
	C156.987640,94.594826 162.525970,92.197426 168.221725,90.287422 
	C176.583679,87.483307 183.500534,82.692299 190.030548,76.258423 
	C194.244095,76.139908 198.678955,77.267609 201.143005,75.556793 
	C205.753601,72.355591 213.385025,72.042503 214.007690,64.158066 
	C214.058914,63.509438 215.396072,62.604034 216.255081,62.438969 
	C220.170547,61.686584 222.241806,59.380764 223.180786,55.573143 
	C223.430344,54.561234 224.915131,53.853943 225.832794,53.006798 
z"/>
<path fill="#347C85" opacity="1.000000" stroke="none" 
	d="
M97.367859,155.891663 
	C95.787598,154.148010 94.579544,152.480743 92.798134,150.022141 
	C94.903885,149.659546 96.827484,149.014633 98.731949,149.066879 
	C102.479912,149.169739 104.071320,147.432327 106.281204,144.296890 
	C110.974098,137.638504 115.563858,130.039551 125.544205,129.807739 
	C127.544060,129.761307 129.551437,128.019974 131.463776,126.903320 
	C132.838486,126.100594 134.060913,125.037102 135.707214,124.027725 
	C141.952271,128.437943 147.841385,132.910370 153.634949,137.838593 
	C153.614548,143.769501 150.353760,145.714005 145.458710,145.944107 
	C144.964066,145.967361 144.444733,145.994110 143.985123,146.156128 
	C134.249771,149.588013 123.460724,157.008179 121.969589,169.039200 
	C113.893089,164.682144 105.816589,160.325089 97.367859,155.891663 
z"/>
<path fill="#29727B" opacity="1.000000" stroke="none" 
	d="
M115.932259,108.977936 
	C108.446609,112.728226 100.746788,116.113495 93.541222,120.341164 
	C87.481689,123.896431 81.820595,128.211945 76.328835,132.621445 
	C73.323967,135.034134 71.035835,138.339478 68.236130,141.513229 
	C67.125267,141.389542 66.202751,140.994904 64.891495,140.173477 
	C63.999294,139.506180 63.495827,139.265686 62.992359,139.025177 
	C62.992359,139.025177 62.993034,139.009354 62.756905,138.852417 
	C62.011574,138.467072 61.502365,138.238647 60.993160,138.010223 
	C60.993160,138.010223 61.000000,138.000000 60.759224,137.846237 
	C59.991650,137.476181 59.464848,137.259888 58.938042,137.043594 
	C58.938042,137.043594 58.993999,137.017670 58.755608,136.881943 
	C57.982857,136.517151 57.448502,136.288071 56.914146,136.059006 
	C56.914146,136.059006 56.983803,136.029968 56.762177,135.894379 
	C56.017437,135.514328 55.494316,135.269867 54.971199,135.025421 
	C54.971199,135.025421 54.991768,135.002075 54.982944,135.015610 
	C53.908428,127.301636 58.153481,123.743881 64.591820,120.308205 
	C74.429459,115.058594 83.511017,108.385513 92.875130,102.258018 
	C97.296982,99.364525 101.396660,95.858757 106.096497,93.558289 
	C108.619232,92.323463 112.103806,93.053665 115.562820,93.413025 
	C115.958267,98.945236 115.945259,103.961586 115.932259,108.977936 
z"/>
<path fill="#3E858D" opacity="1.000000" stroke="none" 
	d="
M11.376177,256.903320 
	C15.840939,252.993622 20.458586,248.855728 25.571308,245.464157 
	C29.183304,243.068085 33.597805,241.912476 37.386017,239.736481 
	C38.942173,238.842606 39.910625,236.794586 40.932465,235.139481 
	C41.897629,233.576141 42.582096,231.839539 43.750229,230.069931 
	C48.766644,238.194489 54.436771,245.663040 62.467144,250.779861 
	C67.079269,253.718628 72.363411,255.603378 77.347649,257.957062 
	C78.555275,258.527344 79.773224,259.075714 80.790817,260.737000 
	C79.060806,260.824432 77.330910,260.985107 75.600761,260.987915 
	C57.826260,261.016754 40.046989,261.236115 22.281199,260.847290 
	C18.741274,260.769806 15.252840,258.339478 11.376177,256.903320 
z"/>
<path fill="#236874" opacity="1.000000" stroke="none" 
	d="
M59.664665,89.912872 
	C60.037025,90.405289 60.048813,90.750496 60.164391,91.056496 
	C63.486282,99.851372 62.634518,101.800674 54.300732,106.647446 
	C51.679127,108.172119 49.533195,110.513290 47.163864,112.473877 
	C46.287178,113.199326 45.502190,114.181625 44.491631,114.576302 
	C35.881630,117.938934 35.448341,118.814445 39.012024,126.652069 
	C31.033981,120.838203 23.101538,114.759148 15.177731,108.039185 
	C16.888866,105.959137 18.445263,104.283966 20.320189,103.123390 
	C26.979980,99.000992 33.844566,95.203911 40.433487,90.974960 
	C43.551559,88.973709 46.220901,86.273323 49.093552,83.889679 
	C52.513191,85.842255 55.932835,87.794815 59.664665,89.912872 
z"/>
<path fill="#1D6470" opacity="1.000000" stroke="none" 
	d="
M48.914474,83.598587 
	C46.220901,86.273323 43.551559,88.973709 40.433487,90.974960 
	C33.844566,95.203911 26.979980,99.000992 20.320189,103.123390 
	C18.445263,104.283966 16.888866,105.959137 15.060971,107.723488 
	C11.711253,103.095543 8.486931,98.142380 5.435244,92.558006 
	C4.833371,90.282745 4.058865,88.638702 3.284359,86.994659 
	C3.225909,86.548203 3.167459,86.101738 3.085383,85.317947 
	C7.334843,83.932915 11.558826,82.557983 15.891567,81.907829 
	C24.094856,80.676849 27.050257,77.762535 27.799566,69.500885 
	C27.872965,68.691635 28.716011,67.952187 29.493231,67.095398 
	C36.101566,72.442802 42.418488,77.875145 48.914474,83.598587 
z"/>
<path fill="#3C858E" opacity="1.000000" stroke="none" 
	d="
M229.071472,111.969070 
	C234.637573,116.763596 240.203659,121.558113 245.910416,126.660110 
	C240.839600,130.561127 235.177643,133.657669 230.528351,137.871490 
	C224.436554,143.392685 217.305115,145.564743 209.208603,146.942413 
	C206.895905,143.318741 204.962601,139.553528 203.026672,135.052948 
	C203.476242,133.109634 203.573349,131.467773 204.436234,130.761612 
	C212.086670,124.500664 219.867401,118.398666 227.636475,112.283791 
	C227.982819,112.011192 228.587250,112.066498 229.071472,111.969070 
z"/>
<path fill="#3C848E" opacity="1.000000" stroke="none" 
	d="
M165.832001,151.989304 
	C165.832001,151.989304 165.934052,152.472580 166.108902,152.889038 
	C166.452148,153.533646 166.631058,153.753220 166.820480,153.964233 
	C168.655548,159.393661 170.490616,164.823074 171.896484,170.727264 
	C171.038330,171.443192 170.421051,171.575317 170.208786,171.941956 
	C167.322311,176.927490 164.388535,181.794037 157.709061,182.196060 
	C157.194931,182.226990 156.537933,182.923706 156.266739,183.469620 
	C154.154846,187.720718 150.923523,189.884979 145.944763,188.441315 
	C145.944763,190.483917 145.944763,191.780594 145.944763,193.077271 
	C143.042816,189.597061 140.140884,186.116837 137.054718,181.985046 
	C134.233261,174.171219 134.948349,171.683014 141.860107,167.166748 
	C145.552261,164.754227 149.800598,163.199585 153.528671,160.833557 
	C157.785995,158.131622 161.743958,154.957962 165.832001,151.989304 
z"/>
<path fill="#408791" opacity="1.000000" stroke="none" 
	d="
M145.986145,193.440491 
	C145.944763,191.780594 145.944763,190.483917 145.944763,188.441315 
	C150.923523,189.884979 154.154846,187.720718 156.266739,183.469620 
	C156.537933,182.923706 157.194931,182.226990 157.709061,182.196060 
	C164.388535,181.794037 167.322311,176.927490 170.208786,171.941956 
	C170.421051,171.575317 171.038330,171.443192 171.795074,171.080658 
	C172.404724,177.002197 172.686600,183.045120 172.702545,189.842651 
	C171.315903,195.438492 170.195175,200.279724 169.074448,205.120941 
	C169.074448,205.120941 169.058563,205.025757 168.831177,205.246185 
	C168.083710,207.005264 167.563644,208.543915 167.043564,210.082550 
	C167.043564,210.082550 167.021515,210.024506 166.763794,210.205841 
	C166.017670,211.618484 165.529266,212.849792 165.040863,214.081100 
	C165.040878,214.081100 165.023743,214.020721 164.766510,214.200516 
	C164.007187,215.598999 163.505112,216.817673 163.003021,218.036362 
	C162.950027,218.372940 162.782944,218.637451 162.108215,219.152374 
	C161.482513,220.006897 161.250381,220.538986 161.018234,221.071075 
	C160.967896,221.394409 160.809052,221.650406 160.133469,222.102173 
	C159.494690,222.625824 159.264130,222.886383 159.033569,223.146942 
	C157.230606,225.337769 155.427628,227.528595 153.005890,229.779968 
	C152.006180,228.372574 151.199539,226.864426 151.333542,225.445084 
	C151.606842,222.550430 152.386856,219.703613 152.958145,216.837097 
	C154.134766,208.110138 149.130295,201.243027 145.986145,193.440491 
z"/>
<path fill="#38808A" opacity="1.000000" stroke="none" 
	d="
M165.797424,151.652588 
	C161.743958,154.957962 157.785995,158.131622 153.528671,160.833557 
	C149.800598,163.199585 145.552261,164.754227 141.860107,167.166748 
	C134.948349,171.683014 134.233261,174.171219 136.906021,181.682037 
	C132.487671,178.068069 128.033813,174.105530 123.110687,169.844681 
	C122.427162,169.351517 122.197800,169.176437 121.953354,169.021149 
	C121.953354,169.021149 121.991966,169.001770 121.980774,169.020477 
	C123.460724,157.008179 134.249771,149.588013 143.985123,146.156128 
	C144.444733,145.994110 144.964066,145.967361 145.458710,145.944107 
	C150.353760,145.714005 153.614548,143.769501 153.780197,138.141754 
	C154.934921,138.796402 155.848862,139.603668 156.926514,140.947327 
	C157.735977,141.951752 158.381714,142.419785 159.027451,142.887833 
	C161.272583,145.697189 163.517715,148.506531 165.797424,151.652588 
z"/>
<path fill="#2F7680" opacity="1.000000" stroke="none" 
	d="
M225.895920,52.549343 
	C224.915131,53.853943 223.430344,54.561234 223.180786,55.573143 
	C222.241806,59.380764 220.170547,61.686584 216.255081,62.438969 
	C215.396072,62.604034 214.058914,63.509438 214.007690,64.158066 
	C213.385025,72.042503 205.753601,72.355591 201.143005,75.556793 
	C198.678955,77.267609 194.244095,76.139908 190.334824,76.115952 
	C194.249435,68.153473 197.438812,60.059147 197.252213,50.790012 
	C197.950943,51.725487 198.460922,52.823887 199.547119,55.163372 
	C205.386215,49.970371 210.523743,45.337822 215.737717,40.792957 
	C218.089920,38.742599 220.594391,36.866905 223.029770,34.911964 
	C226.608337,40.194927 226.072632,46.179398 225.895920,52.549343 
z"/>
<path fill="#286B75" opacity="1.000000" stroke="none" 
	d="
M177.287781,16.028517 
	C179.191910,11.816824 181.402008,7.762028 184.044159,3.507228 
	C195.949127,6.041088 205.754318,11.627083 213.481934,20.742817 
	C205.056091,23.827604 198.520035,28.714989 193.941711,36.119526 
	C189.464905,28.677259 184.761185,21.421068 177.287781,16.028517 
z"/>
<path fill="#2A727B" opacity="1.000000" stroke="none" 
	d="
M193.947815,36.514366 
	C198.520035,28.714989 205.056091,23.827604 213.633423,21.040457 
	C214.340057,21.071447 214.614166,21.250603 215.099640,21.924438 
	C215.592804,22.552877 215.822784,22.771732 216.064835,22.977879 
	C216.064835,22.977879 216.005737,22.970358 216.151108,23.127979 
	C216.471390,23.519140 216.653946,23.746552 216.844131,23.967831 
	C218.896347,27.375048 220.948563,30.782267 223.015274,34.550724 
	C220.594391,36.866905 218.089920,38.742599 215.737717,40.792957 
	C210.523743,45.337822 205.386215,49.970371 199.547119,55.163372 
	C198.460922,52.823887 197.950943,51.725487 197.312958,50.347195 
	C196.107925,45.681274 195.030914,41.295242 193.947815,36.514366 
z"/>
<path fill="#357D86" opacity="1.000000" stroke="none" 
	d="
M176.376160,110.654831 
	C176.812790,106.859406 178.496323,104.931297 182.447037,103.374138 
	C186.871704,101.630165 190.500610,97.713898 194.264420,94.495689 
	C197.211197,91.976067 198.570282,92.525459 198.984680,96.597260 
	C199.001724,96.943008 198.528214,96.974403 198.104126,97.093033 
	C197.806351,97.799644 197.932648,98.387619 198.058960,98.975601 
	C198.058960,98.975601 198.533615,99.056953 198.876999,99.302185 
	C199.831223,99.654709 200.442062,99.762016 201.052902,99.869324 
	C201.806152,99.936211 202.559418,100.003090 203.931274,100.239319 
	C205.068314,100.578033 205.586746,100.747406 206.105179,100.916779 
	C206.533524,100.959747 206.961868,101.002716 207.889175,101.219261 
	C208.625198,101.582932 208.872131,101.759232 209.128906,101.921738 
	C209.555710,101.960281 209.982529,101.998817 210.900635,102.210648 
	C211.622192,102.572144 211.862686,102.746239 212.113388,102.906219 
	C212.533508,102.945877 212.953613,102.985535 213.717087,103.250717 
	C214.060440,103.476242 214.126587,103.878342 213.997253,104.200607 
	C208.112228,112.434166 199.497513,116.125038 190.748398,120.007027 
	C190.309555,120.012169 190.134048,120.016502 189.958527,120.020844 
	C189.617096,119.968903 189.345047,119.803101 188.925751,118.986389 
	C187.462692,117.637352 186.216232,116.825363 184.969772,116.013367 
	C184.620895,115.984802 184.344818,115.828018 183.884537,115.042114 
	C182.722031,114.052628 181.816544,113.564056 180.911041,113.075485 
	C180.911041,113.075485 180.979492,113.035866 180.755478,112.904251 
	C179.996216,112.536430 179.460968,112.300224 178.925720,112.064011 
	C178.925720,112.064011 178.991852,112.070015 178.793060,111.822418 
	C177.878571,111.273842 177.162857,110.972855 176.447144,110.671867 
	C176.447144,110.671867 176.382111,110.687767 176.376160,110.654831 
z"/>
<path fill="#367D86" opacity="1.000000" stroke="none" 
	d="
M83.986801,158.025040 
	C93.567429,162.451004 103.148071,166.876968 112.845718,171.676483 
	C112.962715,172.050049 112.852844,172.178360 112.482346,172.161606 
	C109.936691,173.172318 107.610657,173.970184 105.619942,175.278320 
	C102.199059,177.526260 99.229065,180.551254 95.643333,182.440704 
	C84.039223,188.555328 83.964523,188.413574 84.011261,202.476135 
	C84.009094,210.964050 84.008171,218.983810 83.922539,227.253815 
	C83.590332,227.964233 83.342842,228.424393 83.085678,228.423218 
	C83.075829,213.945663 83.075630,199.929443 83.233398,185.544052 
	C83.274338,176.787872 83.157310,168.400864 83.103348,159.740662 
	C83.439873,158.986664 83.713333,158.505859 83.986801,158.025040 
z"/>
<path fill="#39818A" opacity="1.000000" stroke="none" 
	d="
M191.011734,120.006226 
	C199.497513,116.125038 208.112228,112.434166 214.242615,104.208328 
	C214.617340,103.893791 215.112015,103.892067 215.112015,103.892067 
	C215.112015,103.892067 215.584274,104.036865 215.987976,104.225960 
	C216.608490,104.597267 216.837448,104.762733 217.078506,104.911446 
	C220.971436,107.057777 224.864380,109.204109 228.914398,111.659752 
	C228.587250,112.066498 227.982819,112.011192 227.636475,112.283791 
	C219.867401,118.398666 212.086670,124.500664 204.436234,130.761612 
	C203.573349,131.467773 203.476242,133.109634 202.992477,134.690292 
	C199.180008,130.426514 195.399094,125.790039 191.314545,120.780960 
	C191.010910,120.408356 191.011734,120.006226 191.011734,120.006226 
z"/>
<path fill="#5D8C8F" opacity="1.000000" stroke="none" 
	d="
M83.792084,157.694168 
	C83.713333,158.505859 83.439873,158.986664 83.086075,160.207428 
	C83.028961,169.269333 83.052200,177.591263 83.075439,185.913208 
	C83.075630,199.929443 83.075829,213.945663 83.067215,228.883820 
	C83.063126,232.229156 83.067841,234.652542 83.061302,237.535889 
	C83.061134,243.966232 83.072220,249.936630 83.083473,256.269928 
	C83.092705,257.117615 83.101768,257.602417 82.731415,258.432434 
	C82.009842,259.383759 81.667694,259.989899 81.325546,260.596008 
	C81.544472,257.061768 81.945854,253.527924 81.953552,249.993225 
	C82.017288,220.721375 81.983368,191.449295 82.088287,162.177673 
	C82.094048,160.571106 83.071960,158.968002 83.792084,157.694168 
z"/>
<path fill="#346971" opacity="1.000000" stroke="none" 
	d="
M116.034241,72.059898 
	C116.013168,69.994766 115.992104,67.929642 115.971924,64.955742 
	C115.969360,56.026844 115.965897,48.006714 115.966995,39.519173 
	C115.976700,33.033916 115.981834,27.016077 115.986977,20.998238 
	C116.400986,16.503799 116.814995,12.009361 117.498703,7.265041 
	C117.514343,17.708447 117.165802,28.400558 117.032829,39.095352 
	C116.900230,49.758781 116.983749,60.424904 116.702423,71.563782 
	C116.432343,72.037712 116.034241,72.059898 116.034241,72.059898 
z"/>
<path fill="#4E848A" opacity="1.000000" stroke="none" 
	d="
M152.623657,217.022522 
	C152.386856,219.703613 151.606842,222.550430 151.333542,225.445084 
	C151.199539,226.864426 152.006180,228.372574 152.704163,229.916992 
	C149.360336,232.693054 145.699432,235.392685 141.833023,238.243851 
	C145.537338,230.791443 148.913254,223.999710 152.623657,217.022522 
z"/>
<path fill="#5C9399" opacity="1.000000" stroke="none" 
	d="
M116.834991,208.011765 
	C116.896957,225.030716 116.958923,242.049683 116.788849,259.526917 
	C116.370140,259.984497 116.183449,259.983826 115.995728,259.730347 
	C115.989319,259.309082 115.983963,259.140625 115.981964,258.506531 
	C115.979691,244.373398 115.974060,230.705902 115.974960,216.631256 
	C115.975777,215.138260 115.970062,214.052399 115.976685,212.555634 
	C116.012405,210.772980 116.035782,209.401245 116.253120,208.025253 
	C116.447083,208.020981 116.834991,208.011765 116.834991,208.011765 
z"/>
<path fill="#3E858D" opacity="1.000000" stroke="none" 
	d="
M115.996765,259.983124 
	C116.183449,259.983826 116.370140,259.984497 116.837090,259.993469 
	C117.829628,260.005554 118.541893,260.009338 119.623077,260.194885 
	C119.991982,260.376678 120.005219,260.777527 120.005219,260.777527 
	C107.241028,260.816925 94.476845,260.856354 81.519096,260.745880 
	C81.667694,259.989899 82.009842,259.383759 83.018967,258.661102 
	C85.886810,259.028687 88.080696,259.889343 90.289795,259.930328 
	C98.856163,260.089386 107.427361,259.987732 115.996765,259.983124 
z"/>
<path fill="#45797E" opacity="1.000000" stroke="none" 
	d="
M116.033348,72.522369 
	C116.034241,72.059898 116.432343,72.037712 116.631516,72.029007 
	C116.871140,84.685959 116.911598,97.351616 116.879639,110.475662 
	C116.573730,110.452095 116.340233,109.970139 116.019501,109.233055 
	C115.945259,103.961586 115.958267,98.945236 115.956818,93.461609 
	C115.972389,86.324509 116.002426,79.654678 116.033348,72.522369 
z"/>
<path fill="#568B91" opacity="1.000000" stroke="none" 
	d="
M116.905472,207.547028 
	C116.834991,208.011765 116.447083,208.020981 116.235931,207.556046 
	C115.995720,202.385406 115.966660,197.679718 115.950912,192.510147 
	C115.972672,187.032455 115.981125,182.018616 115.993317,176.657898 
	C115.996780,175.848267 115.996513,175.385529 115.996246,174.922806 
	C116.322395,176.261475 116.919342,177.597778 116.931168,178.939209 
	C117.013840,188.319641 116.975533,197.701126 116.905472,207.547028 
z"/>
<path fill="#3E858D" opacity="1.000000" stroke="none" 
	d="
M133.777679,260.459473 
	C143.698059,260.277283 153.948685,260.413147 164.579773,260.694763 
	C154.676117,260.819489 144.392029,260.798492 133.777679,260.459473 
z"/>
<path fill="#4E848A" opacity="1.000000" stroke="none" 
	d="
M169.383240,204.901657 
	C170.195175,200.279724 171.315903,195.438492 172.641418,190.308502 
	C171.794815,194.907288 170.743423,199.794830 169.383240,204.901657 
z"/>
<path fill="#3E858D" opacity="1.000000" stroke="none" 
	d="
M132.656128,257.240570 
	C132.441864,258.211517 131.863968,259.278687 131.117767,260.580536 
	C129.213852,260.861206 127.478210,260.907227 125.369255,260.599854 
	C124.996307,259.877838 124.996674,259.509247 124.997040,259.140625 
	C127.428856,258.539368 129.860672,257.938080 132.656128,257.240570 
z"/>
<path fill="#1A5F6A" opacity="1.000000" stroke="none" 
	d="
M3.244006,87.332314 
	C4.058865,88.638702 4.833371,90.282745 5.409464,92.168945 
	C4.541918,90.830719 3.872786,89.250343 3.244006,87.332314 
z"/>
<path fill="#367D86" opacity="1.000000" stroke="none" 
	d="
M115.978455,174.577362 
	C115.996513,175.385529 115.996780,175.848267 115.715118,176.491547 
	C114.573074,175.174194 113.712959,173.676270 112.852844,172.178360 
	C112.852844,172.178360 112.962715,172.050049 113.017738,171.985962 
	C114.035400,172.691895 114.998039,173.461899 115.978455,174.577362 
z"/>
<path fill="#408891" opacity="1.000000" stroke="none" 
	d="
M124.609154,259.062683 
	C124.996674,259.509247 124.996307,259.877838 124.995544,260.522888 
	C123.606621,260.835938 122.218102,260.872498 120.417397,260.843292 
	C120.005219,260.777527 119.991982,260.376678 119.979218,260.176819 
	C121.384735,259.646210 122.803001,259.315491 124.609154,259.062683 
z"/>
<path fill="#337982" opacity="1.000000" stroke="none" 
	d="
M185.108582,116.312927 
	C186.216232,116.825363 187.462692,117.637352 188.816223,118.768234 
	C187.697998,118.262238 186.472687,117.437355 185.108582,116.312927 
z"/>
<path fill="#4E848A" opacity="1.000000" stroke="none" 
	d="
M167.342072,209.889160 
	C167.563644,208.543915 168.083710,207.005264 168.878784,205.238297 
	C168.649368,206.571899 168.144958,208.133850 167.342072,209.889160 
z"/>
<path fill="#4E848A" opacity="1.000000" stroke="none" 
	d="
M163.305222,217.884796 
	C163.505112,216.817673 164.007187,215.598999 164.797821,214.202316 
	C164.593399,215.260620 164.100418,216.496933 163.305222,217.884796 
z"/>
<path fill="#4E848A" opacity="1.000000" stroke="none" 
	d="
M165.330322,213.907104 
	C165.529266,212.849792 166.017670,211.618484 166.794830,210.206787 
	C166.595642,211.261963 166.107712,212.497528 165.330322,213.907104 
z"/>
<path fill="#347C85" opacity="1.000000" stroke="none" 
	d="
M158.912964,142.626343 
	C158.381714,142.419785 157.735977,141.951752 157.057114,141.225616 
	C157.615479,141.433304 158.206970,141.899094 158.912964,142.626343 
z"/>
<path fill="#337982" opacity="1.000000" stroke="none" 
	d="
M181.055878,113.362930 
	C181.816544,113.564056 182.722031,114.052628 183.783997,114.819283 
	C183.027222,114.615036 182.113983,114.132706 181.055878,113.362930 
z"/>
<path fill="#337982" opacity="1.000000" stroke="none" 
	d="
M176.634262,110.910484 
	C177.162857,110.972855 177.878571,111.273842 178.759781,111.831421 
	C178.223984,111.775040 177.522675,111.462067 176.634262,110.910484 
z"/>
<path fill="#286D77" opacity="1.000000" stroke="none" 
	d="
M55.126255,135.288361 
	C55.494316,135.269867 56.017437,135.514328 56.776669,135.929214 
	C56.435627,135.916870 55.858467,135.734070 55.126255,135.288361 
z"/>
<path fill="#286D77" opacity="1.000000" stroke="none" 
	d="
M57.074471,136.323395 
	C57.448502,136.288071 57.982857,136.517151 58.757545,136.912720 
	C58.410187,136.915421 57.822491,136.751602 57.074471,136.323395 
z"/>
<path fill="#337982" opacity="1.000000" stroke="none" 
	d="
M179.096680,112.319992 
	C179.460968,112.300224 179.996216,112.536430 180.775253,112.938492 
	C180.435242,112.928230 179.851425,112.752106 179.096680,112.319992 
z"/>
<path fill="#286D77" opacity="1.000000" stroke="none" 
	d="
M59.098965,137.300507 
	C59.464848,137.259888 59.991650,137.476181 60.755524,137.851440 
	C60.415028,137.859406 59.837456,137.708405 59.098965,137.300507 
z"/>
<path fill="#286D77" opacity="1.000000" stroke="none" 
	d="
M61.138123,138.272629 
	C61.502365,138.238647 62.011574,138.467072 62.749550,138.855942 
	C62.413239,138.855927 61.848160,138.695480 61.138123,138.272629 
z"/>
<path fill="#286D77" opacity="1.000000" stroke="none" 
	d="
M63.143040,139.278595 
	C63.495827,139.265686 63.999294,139.506180 64.723480,139.916794 
	C64.394043,139.901932 63.843880,139.716965 63.143040,139.278595 
z"/>
<path fill="#4E848A" opacity="1.000000" stroke="none" 
	d="
M161.300232,220.931030 
	C161.250381,220.538986 161.482513,220.006897 161.883820,219.237610 
	C161.896042,219.597275 161.739120,220.194122 161.300232,220.931030 
z"/>
<path fill="#4E848A" opacity="1.000000" stroke="none" 
	d="
M159.296616,223.050659 
	C159.264130,222.886383 159.494690,222.625824 159.920563,222.191711 
	C159.930466,222.330215 159.745071,222.642303 159.296616,223.050659 
z"/>
<path fill="#347C85" opacity="1.000000" stroke="none" 
	d="
M122.036423,169.248688 
	C122.197800,169.176437 122.427162,169.351517 122.798248,169.695221 
	C122.590263,169.917465 122.311737,169.794861 122.036423,169.248688 
z"/>
<path fill="#38808A" opacity="1.000000" stroke="none" 
	d="
M166.835480,153.716827 
	C166.631058,153.753220 166.452148,153.533646 166.166534,153.129211 
	C166.413284,152.974747 166.680344,153.146927 166.835480,153.716827 
z"/>
<path fill="#337982" opacity="1.000000" stroke="none" 
	d="
M190.748398,120.007027 
	C191.011734,120.006226 191.010910,120.408356 191.012146,120.609314 
	C190.642502,120.914413 190.351334,120.805466 190.049210,120.252151 
	C190.134048,120.016502 190.309555,120.012169 190.748398,120.007027 
z"/>
<path fill="#337982" opacity="1.000000" stroke="none" 
	d="
M198.034363,98.650780 
	C197.932648,98.387619 197.806351,97.799644 197.868179,97.117996 
	C198.040787,97.458214 198.025269,97.892082 198.034363,98.650780 
z"/>
<path fill="#337982" opacity="1.000000" stroke="none" 
	d="
M200.918365,99.589920 
	C200.442062,99.762016 199.831223,99.654709 199.109894,99.363342 
	C199.594208,99.223030 200.189026,99.266777 200.918365,99.589920 
z"/>
<path fill="#337982" opacity="1.000000" stroke="none" 
	d="
M205.987122,100.622070 
	C205.586746,100.747406 205.068314,100.578033 204.308258,100.282501 
	C204.667435,100.213348 205.268250,100.270348 205.987122,100.622070 
z"/>
<path fill="#286B75" opacity="1.000000" stroke="none" 
	d="
M215.975311,22.741455 
	C215.822784,22.771732 215.592804,22.552877 215.219437,22.143183 
	C215.337891,22.145042 215.611832,22.325037 215.975311,22.741455 
z"/>
<path fill="#286B75" opacity="1.000000" stroke="none" 
	d="
M216.856689,23.713526 
	C216.653946,23.746552 216.471390,23.519140 216.170975,23.105789 
	C216.320068,23.103725 216.594666,23.281473 216.856689,23.713526 
z"/>
<path fill="#337982" opacity="1.000000" stroke="none" 
	d="
M209.041382,101.675201 
	C208.872131,101.759232 208.625198,101.582932 208.211487,101.249100 
	C208.341171,101.213127 208.647507,101.320892 209.041382,101.675201 
z"/>
<path fill="#337982" opacity="1.000000" stroke="none" 
	d="
M212.034332,102.660599 
	C211.862686,102.746239 211.622192,102.572144 211.220856,102.241165 
	C211.351624,102.203918 211.653458,102.309441 212.034332,102.660599 
z"/>
<path fill="#337982" opacity="1.000000" stroke="none" 
	d="
M215.035172,103.634033 
	C215.112015,103.892067 214.617340,103.893791 214.371964,103.886063 
	C214.126587,103.878342 214.060440,103.476242 214.033295,103.274300 
	C214.323532,103.173569 214.640930,103.274788 215.035172,103.634033 
z"/>
<path fill="#337982" opacity="1.000000" stroke="none" 
	d="
M217.005646,104.675049 
	C216.837448,104.762733 216.608490,104.597267 216.229187,104.279007 
	C216.436493,104.004219 216.725174,104.102791 217.005646,104.675049 
z"/>
<path fill="#185964" opacity="1.000000" stroke="none" 
	d="
M23.082258,54.414146 
	C17.996895,56.587570 11.815664,56.189594 8.933310,62.484509 
	C8.624025,63.159973 4.919156,62.280647 2.444207,62.040619 
	C4.688978,48.920250 10.423017,37.609077 21.016447,27.685165 
	C21.587059,29.701557 22.225502,31.005215 22.287613,32.335777 
	C22.624514,39.552765 22.819021,46.776402 23.082258,54.414146 
z"/>
<path fill="#557F85" opacity="1.000000" stroke="none" 
	d="
M83.121864,98.826874 
	C83.121864,98.826874 82.677765,99.033524 82.677765,99.033524 
	C82.677765,99.033524 82.198158,99.014580 82.040878,98.963760 
	C81.958839,75.256950 82.034096,51.600960 82.340019,27.553635 
	C82.570694,27.162298 82.934814,27.300699 82.934814,27.300699 
	C82.941544,27.686682 82.948273,28.072662 82.977966,29.209984 
	C83.055252,41.628014 83.109589,53.294704 83.119873,65.431816 
	C83.091171,76.877113 83.106514,87.851997 83.121864,98.826874 
z"/>
<path fill="#185964" opacity="1.000000" stroke="none" 
	d="
M82.879349,27.006304 
	C82.934814,27.300699 82.570694,27.162298 82.390266,27.088150 
	C82.169601,26.576952 82.129364,26.139904 82.149979,25.376934 
	C82.415199,25.604643 82.619545,26.158276 82.879349,27.006304 
z"/>
<path fill="#185964" opacity="1.000000" stroke="none" 
	d="
M23.974319,55.694839 
	C23.780710,55.733707 23.570938,55.499680 23.197481,55.095116 
	C23.344521,55.088036 23.652641,55.253826 23.974319,55.694839 
z"/>
<path fill="#185964" opacity="1.000000" stroke="none" 
	d="
M24.851822,58.710579 
	C24.667223,58.727501 24.482046,58.483978 24.178844,58.042889 
	C24.317259,58.052277 24.580734,58.253880 24.851822,58.710579 
z"/>
<path fill="#185964" opacity="1.000000" stroke="none" 
	d="
M25.823112,60.719193 
	C25.644482,60.747284 25.458620,60.526020 25.157722,60.119797 
	C25.379519,59.993340 25.637249,60.171677 25.823112,60.719193 
z"/>
<path fill="#1C6470" opacity="1.000000" stroke="none" 
	d="
M115.654228,20.852127 
	C115.981834,27.016077 115.976700,33.033916 115.634369,39.604862 
	C111.643806,42.841591 108.024597,45.573318 104.329185,48.197739 
	C98.554314,52.298965 92.751495,56.362324 86.894264,60.344265 
	C86.134972,60.860458 84.981819,60.797302 84.007256,60.533710 
	C84.009735,51.714058 84.016068,43.363205 84.022400,35.012348 
	C88.588249,34.909542 92.779716,34.327637 95.364265,29.650734 
	C96.110023,28.301220 98.374992,27.836199 99.856850,26.837200 
	C101.736557,25.569983 104.099846,24.539190 105.244522,22.757505 
	C108.074783,18.352188 111.353653,18.381334 115.654228,20.852127 
z"/>
<path fill="#185964" opacity="1.000000" stroke="none" 
	d="
M84.015152,34.620293 
	C84.016068,43.363205 84.009735,51.714058 84.001915,60.931610 
	C83.993126,62.859612 83.985825,63.920921 83.774857,64.977783 
	C83.571190,64.973328 83.163925,64.961395 83.163925,64.961395 
	C83.109589,53.294704 83.055252,41.628014 83.022568,29.496424 
	C83.365448,30.763763 83.686676,32.495998 84.015152,34.620293 
z"/>
<path fill="#226974" opacity="1.000000" stroke="none" 
	d="
M83.978531,64.982231 
	C83.985825,63.920921 83.993126,62.859612 84.005760,61.400406 
	C84.981819,60.797302 86.134972,60.860458 86.894264,60.344265 
	C92.751495,56.362324 98.554314,52.298965 104.329185,48.197739 
	C108.024597,45.573318 111.643806,42.841591 115.629807,40.072273 
	C115.965897,48.006714 115.969360,56.026844 115.966187,64.513474 
	C113.907135,65.953560 111.652382,66.646263 109.839409,67.952240 
	C103.865112,72.255859 98.228249,77.055740 92.061745,81.046951 
	C90.316780,82.176361 87.203949,81.192406 84.364334,80.625900 
	C83.999649,75.043472 83.989090,70.012856 83.978531,64.982231 
z"/>
<path fill="#235F69" opacity="1.000000" stroke="none" 
	d="
M83.774864,64.977783 
	C83.989090,70.012856 83.999649,75.043472 84.016174,80.542068 
	C83.823517,86.708786 83.624886,92.407532 83.274063,98.466568 
	C83.106514,87.851997 83.091171,76.877113 83.119873,65.431816 
	C83.163925,64.961395 83.571190,64.973328 83.774864,64.977783 
z"/>
<path fill="#3F8891" opacity="1.000000" stroke="none" 
	d="
M115.995728,259.730347 
	C107.427361,259.987732 98.856163,260.089386 90.289795,259.930328 
	C88.080696,259.889343 85.886810,259.028687 83.398384,258.315887 
	C83.101768,257.602417 83.092705,257.117615 83.241287,255.903381 
	C83.290146,249.141266 83.181358,243.108612 83.072563,237.075943 
	C83.067841,234.652542 83.063126,232.229156 83.076874,229.345154 
	C83.342842,228.424393 83.590332,227.964233 84.264275,227.345306 
	C89.192436,230.072418 92.905792,230.246170 95.116196,224.376633 
	C95.420937,223.567398 96.543953,223.063004 97.295158,222.425751 
	C102.249130,218.223404 110.050827,218.220993 113.332695,211.551849 
	C114.209908,212.023422 115.087128,212.494980 115.964340,212.966553 
	C115.970062,214.052399 115.975777,215.138260 115.808197,217.002686 
	C115.423019,228.900040 115.141624,240.018250 115.050713,251.138000 
	C115.029381,253.746689 115.652161,256.360657 115.978607,258.972198 
	C115.983963,259.140625 115.989319,259.309082 115.995728,259.730347 
z"/>
<path fill="#3B858E" opacity="1.000000" stroke="none" 
	d="
M115.976685,212.555634 
	C115.087128,212.494980 114.209908,212.023422 113.332695,211.551849 
	C110.050827,218.220993 102.249130,218.223404 97.295158,222.425751 
	C96.543953,223.063004 95.420937,223.567398 95.116196,224.376633 
	C92.905792,230.246170 89.192436,230.072418 84.348984,227.095062 
	C84.008171,218.983810 84.009094,210.964050 84.338531,202.578766 
	C86.237350,202.584717 88.215050,203.752914 89.309341,203.193390 
	C94.840965,200.365067 100.654442,197.701416 105.365936,193.776001 
	C109.250244,190.539764 112.105217,189.514038 115.937599,192.974014 
	C115.966660,197.679718 115.995720,202.385406 116.041969,207.560318 
	C116.035782,209.401245 116.012405,210.772980 115.976685,212.555634 
z"/>
<path fill="#38818A" opacity="1.000000" stroke="none" 
	d="
M115.950912,192.510147 
	C112.105217,189.514038 109.250244,190.539764 105.365936,193.776001 
	C100.654442,197.701416 94.840965,200.365067 89.309341,203.193390 
	C88.215050,203.752914 86.237350,202.584717 84.339767,202.110626 
	C83.964523,188.413574 84.039223,188.555328 95.643333,182.440704 
	C99.229065,180.551254 102.199059,177.526260 105.619942,175.278320 
	C107.610657,173.970184 109.936691,173.172318 112.482346,172.161606 
	C113.712959,173.676270 114.573074,175.174194 115.711380,176.838440 
	C115.981125,182.018616 115.972672,187.032455 115.950912,192.510147 
z"/>
<path fill="#35747A" opacity="1.000000" stroke="none" 
	d="
M83.233398,185.544052 
	C83.052200,177.591263 83.028961,169.269333 83.023003,160.480621 
	C83.157310,168.400864 83.274338,176.787872 83.233398,185.544052 
z"/>
<path fill="#3E858D" opacity="1.000000" stroke="none" 
	d="
M83.061310,237.535889 
	C83.181358,243.108612 83.290146,249.141266 83.241119,255.540482 
	C83.072220,249.936630 83.061134,243.966232 83.061310,237.535889 
z"/>
<path fill="#3B858E" opacity="1.000000" stroke="none" 
	d="
M115.981964,258.506531 
	C115.652161,256.360657 115.029381,253.746689 115.050713,251.138000 
	C115.141624,240.018250 115.423019,228.900040 115.801666,217.409851 
	C115.974060,230.705902 115.979691,244.373398 115.981964,258.506531 
z"/>
</svg>